<svg xmlns="http://www.w3.org/2000/svg" viewBox="0 0 64 56" role="img" aria-labelledby="title description">
  <title id="title">KCFinder Resurrected</title>
  <desc id="description">Carpeta con un ojo que representa la exploración de archivos.</desc>
  <path fill="#0E1524" d="M5 10a5 5 0 0 1 5-5h15l6 7h23a5 5 0 0 1 5 5v29a5 5 0 0 1-5 5H10a5 5 0 0 1-5-5V10Z"/>
  <path fill="#16243A" d="M5 18h54v28a5 5 0 0 1-5 5H10a5 5 0 0 1-5-5V18Z"/>
  <path fill="#F8FBFD" d="M13 34c4.7-7.2 11.1-10.8 19-10.8S46.3 26.8 51 34c-4.7 7.2-11.1 10.8-19 10.8S17.7 41.2 13 34Z"/>
  <circle cx="32" cy="34" r="8.2" fill="#3CBFED"/>
  <circle cx="32" cy="34" r="3.8" fill="#0E1524"/>
  <circle cx="35" cy="31" r="1.4" fill="#fff"/>
</svg>
