<svg xmlns="http://www.w3.org/2000/svg" viewBox="48 145 420 160" role="img" aria-label="KRMA"><g fill="#3CBFED"><path d="M56.93,291.88v-135.15h17.29v135.15h-17.29ZM78.86,239.16l91.08-82.44h10.96l-80.54,74.01,80.54,61.14h-30.57l-71.48-52.71Z"/><path d="M191.87,233.41c.14-17.24,6.04-25.87,17.71-25.87h17.92v25.72h-12.86c-5.77,0-8.72,2.6-8.86,7.8v50.81h-13.92v-58.47Z"/><path d="M244.37,207.33h99.52c11.52,0,17.43,8.64,17.71,25.93v58.61h-20.66v-65.57c0-3.93-1.83-5.9-5.48-5.9h-25.51v71.48h-20.66v-65.57c0-3.93-1.83-5.9-5.48-5.9h-25.51v71.05h-13.92v-84.13Z"/><path d="M378.46,220.4v-13.07h63.04c11.52,0,17.43,8.64,17.71,25.93v58.61h-63.04c-11.81,0-17.71-8.57-17.71-25.72v-25.3h66.84v-14.55c0-3.93-1.83-5.9-5.48-5.9h-61.35ZM445.3,266.15v-17.71h-52.92v9.7c0,5.34,2.95,8.01,8.85,8.01h44.07Z"/></g></svg>